<?xml version="1.0" standalone="no"?>
<!DOCTYPE svg PUBLIC "-//W3C//DTD SVG 20010904//EN"
 "http://www.w3.org/TR/2001/REC-SVG-20010904/DTD/svg10.dtd">
<svg version="1.0" xmlns="http://www.w3.org/2000/svg"
 width="400.000000pt" height="400.000000pt" viewBox="0 0 400.000000 400.000000"
 preserveAspectRatio="xMidYMid meet">
<metadata>
Created by potrace 1.11, written by Peter Selinger 2001-2013
</metadata>
<g transform="translate(0.000000,400.000000) scale(0.100000,-0.100000)"
fill="#000000" stroke="none">
<path d="M1765 3836 c-81 -16 -212 -59 -270 -89 -22 -11 -74 -32 -116 -47
-229 -80 -375 -254 -415 -496 -13 -79 -25 -112 -55 -164 -47 -80 -84 -191 -98
-290 -5 -41 -13 -200 -17 -352 -6 -244 -5 -278 8 -278 8 0 20 10 25 23 10 21
11 20 21 -17 8 -29 8 -76 0 -174 -9 -111 -8 -136 3 -147 22 -21 66 -7 78 24
14 35 38 204 46 321 7 93 8 98 75 225 42 80 82 177 105 250 52 166 85 227 169
311 113 113 194 144 381 144 119 0 208 -15 372 -64 237 -70 384 -98 608 -116
150 -12 271 -37 332 -69 45 -23 104 -83 127 -129 48 -95 78 -325 55 -422 -25
-102 -37 -165 -33 -171 2 -4 -2 -45 -10 -90 -8 -46 -14 -91 -15 -99 -1 -18 -6
-51 -25 -155 -8 -44 -16 -145 -19 -225 -4 -91 -3 -125 2 -90 11 73 40 170 52
171 5 1 15 2 22 3 14 1 43 84 32 94 -4 4 -17 -5 -30 -20 -13 -16 -26 -28 -28
-28 -2 0 2 37 8 83 8 58 29 123 69 221 32 76 72 190 89 255 29 107 31 127 30
258 -1 98 -7 160 -18 202 -11 38 -15 72 -10 93 4 18 8 56 10 83 1 28 10 78 19
113 21 76 16 119 -24 187 -15 28 -45 80 -65 117 -76 137 -245 288 -425 378
-167 84 -398 153 -575 171 -168 18 -408 20 -490 5z"/>
<path d="M1560 2571 c-71 -22 -154 -82 -195 -140 -49 -72 -27 -78 97 -25 46
20 107 38 138 41 79 8 212 -12 352 -52 66 -19 121 -35 124 -35 14 0 -2 27 -41
69 -51 55 -157 113 -250 136 -62 16 -182 19 -225 6z"/>
<path d="M2750 2364 c-59 -16 -141 -61 -148 -81 -3 -10 19 -13 88 -13 108 0
227 -23 289 -55 29 -15 61 -44 86 -79 49 -68 65 -71 65 -12 0 114 -71 221
-162 244 -62 16 -150 14 -218 -4z"/>
<path d="M1543 2140 c-106 -22 -177 -76 -220 -168 -37 -78 -23 -83 25 -8 87
133 211 183 353 142 143 -42 215 -131 237 -291 l9 -60 7 47 c17 99 -36 212
-128 275 -77 53 -200 80 -283 63z"/>
<path d="M1532 2060 c-44 -10 -101 -57 -124 -102 -26 -50 -25 -126 2 -182 26
-54 49 -70 133 -92 81 -22 126 -11 180 42 45 45 61 90 55 160 -10 120 -127
203 -246 174z m16 -72 c30 -30 2 -86 -38 -73 -31 10 -42 38 -24 63 17 24 44
28 62 10z m156 -259 c-31 -32 -85 -52 -121 -43 -24 6 -32 24 -10 24 6 0 44 16
82 35 76 37 94 31 49 -16z"/>
<path d="M680 2037 c0 -8 9 -22 20 -32 12 -10 30 -34 42 -54 26 -42 36 -26 12
21 -29 58 -74 97 -74 65z"/>
<path d="M2677 1959 c-79 -19 -168 -85 -203 -152 -7 -12 -18 -22 -25 -22 -7 0
-14 -7 -16 -15 -4 -13 -3 -13 6 0 7 9 11 10 11 3 0 -6 -5 -15 -11 -19 -6 -3
-9 -15 -6 -25 3 -10 0 -20 -7 -23 -7 -3 -6 -9 5 -18 9 -7 19 -26 23 -41 9 -38
48 -73 104 -92 26 -9 55 -21 64 -26 43 -22 115 3 162 55 62 70 61 187 -3 260
-27 31 -88 56 -138 57 l-48 1 40 19 c79 37 198 20 274 -41 41 -32 85 -117 96
-187 8 -48 20 -56 29 -19 11 44 -19 152 -52 190 -32 36 -117 83 -170 95 -60
13 -82 13 -135 0z m-67 -138 c5 -11 7 -27 4 -36 -6 -14 -34 -35 -48 -35 -10 0
-36 32 -36 45 0 20 28 45 50 45 11 0 24 -9 30 -19z m170 -209 c0 -15 -54 -60
-85 -72 -30 -11 -75 -6 -75 8 0 5 26 20 58 35 82 37 102 43 102 29z"/>
<path d="M812 1481 c-7 -19 -19 -31 -34 -33 -23 -4 -23 -4 4 -16 34 -14 42
-29 62 -122 89 -400 500 -867 900 -1021 268 -104 497 -67 793 127 192 127 359
306 454 487 41 79 90 245 88 301 -1 20 -5 9 -14 -34 -11 -54 -20 -83 -41 -130
-1 -3 -5 -15 -9 -27 -4 -13 -11 -23 -16 -23 -5 0 -9 -6 -9 -14 0 -8 -4 -16 -9
-18 -4 -1 -22 -28 -39 -58 -18 -30 -32 -51 -32 -47 0 12 -17 -8 -98 -115 -78
-103 -207 -230 -259 -256 -18 -8 -30 -19 -27 -24 3 -4 -2 -8 -10 -8 -9 0 -16
-4 -16 -8 0 -5 -18 -17 -40 -27 -22 -10 -40 -21 -40 -25 0 -4 -20 -15 -45 -24
-25 -10 -45 -21 -45 -26 0 -4 -12 -11 -27 -15 -16 -3 -41 -13 -58 -20 -140
-62 -403 -44 -564 39 -16 9 -31 12 -35 9 -3 -4 -6 -1 -6 5 0 7 -7 12 -16 12
-9 0 -12 5 -8 13 4 6 4 9 -1 5 -4 -4 -27 6 -50 22 -23 16 -46 26 -50 22 -5 -4
-5 -2 -1 5 4 7 -4 18 -22 27 -16 8 -34 22 -41 30 -7 9 -18 13 -24 9 -5 -3 -7
-2 -4 3 3 6 -13 25 -36 44 -23 18 -58 52 -77 75 -19 23 -39 40 -44 37 -5 -3
-7 1 -4 9 7 18 -13 37 -32 31 -8 -3 -12 -1 -8 3 7 7 -86 137 -103 143 -5 2 -9
12 -9 21 0 10 -8 29 -19 42 -10 13 -28 45 -40 72 -12 26 -26 47 -32 47 -6 0
-8 4 -5 8 6 9 -63 127 -119 205 -40 57 -53 96 -61 192 -4 39 -8 71 -9 73 -1 2
-7 -10 -13 -27z"/>
<path d="M2391 1284 c0 -12 -7 -37 -15 -56 -37 -87 -203 -93 -325 -12 -48 31
-59 28 -37 -14 31 -60 175 -104 271 -83 80 18 127 85 112 162 -4 22 -4 22 -6
3z"/>
<path d="M3081 1284 c0 -11 3 -14 6 -6 3 7 2 16 -1 19 -3 4 -6 -2 -5 -13z"/>
<path d="M1630 1062 c0 -21 45 -86 81 -118 24 -21 186 -68 264 -77 22 -3 63
-10 90 -17 28 -7 102 -13 165 -15 99 -2 115 -5 114 -19 -3 -26 26 -19 101 25
70 40 140 108 127 121 -4 4 -32 4 -62 0 -30 -4 -138 -6 -240 -6 -146 2 -208 6
-295 24 -109 21 -236 60 -287 86 -37 19 -58 18 -58 -4z m120 -63 c0 -5 4 -8 9
-5 5 3 62 -8 127 -24 125 -31 294 -60 356 -60 20 0 43 -3 52 -6 69 -27 -104
-33 -251 -9 -93 15 -235 56 -285 81 -27 14 -38 34 -18 34 6 0 10 -5 10 -11z"/>
<path d="M2459 813 c-15 -34 -180 -102 -299 -122 -53 -9 -52 -10 30 -7 72 2
96 7 150 33 67 32 139 87 128 98 -3 4 -8 3 -9 -2z"/>
</g>
</svg>
